<svg xmlns="http://www.w3.org/2000/svg" width="255.666" height="255.666"><path d="M52.504 9.297c-17.895 0-32.453 14.559-32.453 32.454 0 10.064 4.585 19.4 12.583 25.618 5.751 4.466 12.626 6.833 19.87 6.833 7.241 0 14.122-2.367 19.868-6.833 8.002-6.213 12.588-15.554 12.588-25.618C84.96 23.856 70.401 9.297 52.504 9.297zM62.799 55.05c-5.977 4.654-14.607 4.654-20.591 0-4.171-3.239-6.563-8.084-6.563-13.299 0-9.293 7.561-16.854 16.854-16.854 9.295 0 16.856 7.561 16.856 16.854C69.36 46.966 66.969 51.811 62.799 55.05zM.01 168.319c0 7.952 5.705 14.858 13.898 17.352-.005 9.312-.021 24.836-.021 24.836v16.169c0 10.354 9.194 18.778 20.487 18.778h1.889c6.375 0 12.073-2.682 15.838-6.881 3.692 4.718 9.696 7.795 16.468 7.795h1.861c11.207 0 20.322-8.42 20.322-18.778v-17.23c0 0-.074-16.183-.099-25.009 7.794-2.717 13.01-9.374 13.01-17.031v-64.5c0-14.927-15.849-28.005-26.124-29.201l-3.755-.328-2.658 2.542c-1.43 1.379-3.062 2.618-4.844 3.676-8.866 5.309-20.368 4.946-28.828-.754-1.19-.794-2.409-1.783-3.486-2.813l-2.292-2.283-3.712-.17C16.27 74.488 0 89.271 0 103.826v64.493H.01zM15.61 103.819c0-5.261 6.5-11.22 10.43-13.119.901.724 1.815 1.398 2.724 2.008 13.36 8.991 31.555 9.542 45.532 1.191 1.45-.868 2.849-1.815 4.128-2.792 4.128 2.267 9.646 7.909 9.646 12.712v64.5c0 .771-1.221 2.103-3.494 2.569-.579.111-1.935.559-3.146 1.036l-6.226.111-.15 7.5c-.021 1.031.076 23.902.109 30.854v17.199c0 1.503-1.939 3.179-4.722 3.179h-1.861c-2.777 0-4.717-1.676-4.717-3.179v-45.778H41.162v44.864c0 1.503-2.084 3.184-4.882 3.184h-1.889c-2.795 0-4.888-1.681-4.888-3.184v-16.148c0 0 .033-31.25.021-31.869l-.071-8.247L21.231 171c-.546 0-1.523-.02-1.805-.035-2.458-.391-3.816-1.812-3.816-2.646V103.819zM113.722 157.519c1.523 1.523 3.519 2.28 5.517 2.28 1.996 0 3.991-.757 5.517-2.28l17.601-17.601 17.6 17.601c1.523 1.523 3.524 2.28 5.515 2.28 2.001 0 3.997-.757 5.521-2.28 3.046-3.047 3.046-7.982 0-11.029l-17.601-17.601 17.601-17.6c3.046-3.049 3.046-7.983 0-11.029-3.047-3.047-7.978-3.047-11.024 0l-17.605 17.6-17.601-17.6c-3.049-3.047-7.982-3.047-11.029 0-3.047 3.046-3.047 7.98 0 11.029l17.601 17.6-17.601 17.601C110.675 149.536 110.675 154.472 113.722 157.519zM255.666 73.298h-77.998l-.305 19.499h55.025c-5.393 5.23-12.07 14.47-20.048 27.726-12.35 21.375-18.854 41.967-19.515 61.771h22.546c0-6.348 1.244-14.473 3.743-24.374 2.493-9.907 5.291-18.281 8.389-25.137 3.92-8.736 8.774-17.201 14.584-25.402 5.799-8.198 10.323-13.903 13.578-17.1V73.298z"/></svg>